<mxfile host="app.diagrams.net" agent="Mozilla/5.0 (X11; Linux x86_64; rv:131.0) Gecko/20100101 Firefox/131.0" version="24.8.3">
  <diagram name="Страница — 1" id="rK81_hU1Zp_jlYtDJmEP">
    <mxGraphModel dx="1050" dy="529" grid="1" gridSize="10" guides="1" tooltips="1" connect="1" arrows="1" fold="1" page="1" pageScale="1" pageWidth="827" pageHeight="1169" math="0" shadow="0">
      <root>
        <mxCell id="0" />
        <mxCell id="1" parent="0" />
        <mxCell id="4B0-1-7cd9e8P2CP9gL0-11" value="Manažer" style="shape=umlActor;verticalLabelPosition=bottom;verticalAlign=top;html=1;outlineConnect=0;" vertex="1" parent="1">
          <mxGeometry x="560" y="230" width="30" height="60" as="geometry" />
        </mxCell>
        <mxCell id="4B0-1-7cd9e8P2CP9gL0-12" value="" style="rounded=1;whiteSpace=wrap;html=1;dashed=1;" vertex="1" parent="1">
          <mxGeometry x="70" y="80" width="404" height="340" as="geometry" />
        </mxCell>
        <mxCell id="4B0-1-7cd9e8P2CP9gL0-13" value="Výběr kola pro servis" style="ellipse;whiteSpace=wrap;html=1;" vertex="1" parent="1">
          <mxGeometry x="270" y="110" width="150" height="70" as="geometry" />
        </mxCell>
        <mxCell id="4B0-1-7cd9e8P2CP9gL0-14" value="Vytvoření požadavku s popisem problému" style="ellipse;whiteSpace=wrap;html=1;" vertex="1" parent="1">
          <mxGeometry x="270" y="210" width="150" height="70" as="geometry" />
        </mxCell>
        <mxCell id="4B0-1-7cd9e8P2CP9gL0-16" value="Označení stavu požadavku jako čekající" style="ellipse;whiteSpace=wrap;html=1;" vertex="1" parent="1">
          <mxGeometry x="270" y="320" width="150" height="70" as="geometry" />
        </mxCell>
        <mxCell id="4B0-1-7cd9e8P2CP9gL0-17" value="Aktualizace stavu kola na dostupné" style="ellipse;whiteSpace=wrap;html=1;" vertex="1" parent="1">
          <mxGeometry x="90" y="230" width="150" height="70" as="geometry" />
        </mxCell>
        <mxCell id="4B0-1-7cd9e8P2CP9gL0-18" value="" style="endArrow=classic;html=1;rounded=0;entryX=1;entryY=0.5;entryDx=0;entryDy=0;" edge="1" parent="1" target="4B0-1-7cd9e8P2CP9gL0-16">
          <mxGeometry width="50" height="50" relative="1" as="geometry">
            <mxPoint x="560" y="250" as="sourcePoint" />
            <mxPoint x="460" y="270" as="targetPoint" />
          </mxGeometry>
        </mxCell>
        <mxCell id="4B0-1-7cd9e8P2CP9gL0-20" value="" style="endArrow=classic;html=1;rounded=0;entryX=1;entryY=0.5;entryDx=0;entryDy=0;" edge="1" parent="1" target="4B0-1-7cd9e8P2CP9gL0-14">
          <mxGeometry width="50" height="50" relative="1" as="geometry">
            <mxPoint x="560" y="250" as="sourcePoint" />
            <mxPoint x="460" y="270" as="targetPoint" />
          </mxGeometry>
        </mxCell>
        <mxCell id="4B0-1-7cd9e8P2CP9gL0-21" value="" style="endArrow=classic;html=1;rounded=0;entryX=0.993;entryY=0.6;entryDx=0;entryDy=0;entryPerimeter=0;exitX=0;exitY=0.3333333333333333;exitDx=0;exitDy=0;exitPerimeter=0;" edge="1" parent="1" source="4B0-1-7cd9e8P2CP9gL0-11" target="4B0-1-7cd9e8P2CP9gL0-13">
          <mxGeometry width="50" height="50" relative="1" as="geometry">
            <mxPoint x="410" y="320" as="sourcePoint" />
            <mxPoint x="460" y="270" as="targetPoint" />
          </mxGeometry>
        </mxCell>
        <mxCell id="4B0-1-7cd9e8P2CP9gL0-22" value="" style="endArrow=classic;html=1;rounded=0;dashed=1;entryX=0.5;entryY=1;entryDx=0;entryDy=0;exitX=0;exitY=0.5;exitDx=0;exitDy=0;" edge="1" parent="1" source="4B0-1-7cd9e8P2CP9gL0-16" target="4B0-1-7cd9e8P2CP9gL0-17">
          <mxGeometry width="50" height="50" relative="1" as="geometry">
            <mxPoint x="130" y="400" as="sourcePoint" />
            <mxPoint x="180" y="350" as="targetPoint" />
            <Array as="points">
              <mxPoint x="165" y="355" />
            </Array>
          </mxGeometry>
        </mxCell>
        <mxCell id="4B0-1-7cd9e8P2CP9gL0-23" value="Po dokončení servisu" style="edgeLabel;html=1;align=center;verticalAlign=middle;resizable=0;points=[];" vertex="1" connectable="0" parent="4B0-1-7cd9e8P2CP9gL0-22">
          <mxGeometry x="0.175" y="1" relative="1" as="geometry">
            <mxPoint y="14" as="offset" />
          </mxGeometry>
        </mxCell>
        <mxCell id="4B0-1-7cd9e8P2CP9gL0-24" value="Vytvoření požadavku na servis" style="text;html=1;align=center;verticalAlign=middle;whiteSpace=wrap;rounded=0;" vertex="1" parent="1">
          <mxGeometry x="182" y="50" width="180" height="30" as="geometry" />
        </mxCell>
      </root>
    </mxGraphModel>
  </diagram>
</mxfile>
